<?xml version="1.0" standalone="no"?><!-- Generator: Gravit.io --><svg xmlns="http://www.w3.org/2000/svg" xmlns:xlink="http://www.w3.org/1999/xlink" style="isolation:isolate" viewBox="0 0 741.3 131.85" width="741.3" height="11.85"><defs><clipPath id="_clipPath_ufUKWNh03Q0ow8cg9bS2G9dNbT4C2wP3"><rect width="741.3" height="131.85"/></clipPath></defs><g clip-path="url(#_clipPath_ufUKWNh03Q0ow8cg9bS2G9dNbT4C2wP3)"><path d="M 12.75 106.95 L 0 106.95 L 0.75 57.6 L 0.3 2.7 Q 1.819 2.424 5.12 2.147 A 158.084 158.084 0 0 1 5.7 2.1 Q 8.923 1.842 12.921 1.584 A 674.375 674.375 0 0 1 14.25 1.5 Q 19.05 1.2 24.075 0.975 A 234.382 234.382 0 0 1 28.931 0.806 A 188.527 188.527 0 0 1 33.45 0.75 A 55.697 55.697 0 0 1 41.858 1.353 Q 46.456 2.055 50.351 3.577 A 33.932 33.932 0 0 1 51.15 3.9 Q 58.65 7.05 62.7 14.175 A 27.794 27.794 0 0 1 65.396 21.028 Q 66.241 24.317 66.559 28.222 A 60.848 60.848 0 0 1 66.75 33.15 Q 66.75 42.98 63.516 49.746 A 24.609 24.609 0 0 1 61.05 53.85 A 25.857 25.857 0 0 1 49.928 62.335 A 35.273 35.273 0 0 1 44.55 64.05 L 44.55 64.5 L 68.1 106.95 L 53.25 106.95 L 32.25 65.55 L 12.75 64.8 L 12.75 106.95 Z M 251.7 131.85 L 238.5 131.85 L 250.2 97.8 L 222.3 19.65 L 235.65 19.65 L 255.75 83.4 L 256.35 83.4 L 276.45 19.65 L 289.8 19.65 L 260.4 101.4 L 251.7 131.85 Z M 703.2 131.85 L 690 131.85 L 701.7 97.8 L 673.8 19.65 L 687.15 19.65 L 707.25 83.4 L 707.85 83.4 L 727.95 19.65 L 741.3 19.65 L 711.9 101.4 L 703.2 131.85 Z M 629.4 53.25 L 645.3 53.25 A 259.647 259.647 0 0 0 645.247 47.889 Q 645.187 44.968 645.057 42.394 A 140.007 140.007 0 0 0 644.925 40.125 A 26.784 26.784 0 0 0 644.578 37.192 Q 644.003 33.984 642.659 32.081 A 7.626 7.626 0 0 0 642.45 31.8 Q 640.95 29.7 638.325 29.1 A 24.43 24.43 0 0 0 633.028 28.501 A 26.973 26.973 0 0 0 632.85 28.5 Q 627 28.5 621.375 29.625 Q 615.75 30.75 611.175 32.25 A 174.761 174.761 0 0 0 609.005 32.977 Q 605.925 34.031 603.9 34.875 L 601.2 36 L 596.85 26.25 L 599.7 24.975 A 66.89 66.89 0 0 1 601.672 24.134 Q 603.892 23.226 606.916 22.132 A 214.66 214.66 0 0 1 607.35 21.975 A 73.881 73.881 0 0 1 612.431 20.362 A 95.723 95.723 0 0 1 618.075 18.975 Q 624 17.7 630.3 17.7 Q 637.642 17.7 642.809 19.76 A 20.217 20.217 0 0 1 646.5 21.675 A 22.013 22.013 0 0 1 655.042 32.553 A 26.948 26.948 0 0 1 655.125 32.775 A 40.552 40.552 0 0 1 657.094 40.519 Q 657.668 44.177 657.74 48.31 A 68.541 68.541 0 0 1 657.75 49.5 L 657.75 106.95 L 649.65 106.95 L 647.85 97.8 L 646.95 97.8 Q 645.45 98.85 642.675 100.725 Q 639.9 102.6 636.225 104.475 A 42.051 42.051 0 0 1 631.046 106.678 A 50.914 50.914 0 0 1 628.05 107.625 A 34.198 34.198 0 0 1 620.341 108.855 A 39.502 39.502 0 0 1 618.45 108.9 A 25.13 25.13 0 0 1 611.374 107.935 A 21.567 21.567 0 0 1 606.225 105.675 Q 600.9 102.45 597.9 96.225 Q 594.9 90 594.9 81.15 A 42.946 42.946 0 0 1 595.36 74.654 Q 595.883 71.244 597 68.47 A 19.919 19.919 0 0 1 599.175 64.425 Q 603.45 58.35 611.25 55.8 Q 618.563 53.409 628.116 53.26 A 82.097 82.097 0 0 1 629.4 53.25 Z M 507.9 107.1 L 507.9 2.55 A 6.759 6.759 0 0 0 508.22 2.539 Q 508.957 2.502 510.895 2.331 A 335.661 335.661 0 0 0 511.8 2.25 A 458.173 458.173 0 0 1 514.486 2.014 Q 516.9 1.809 519.9 1.575 A 485.274 485.274 0 0 1 527.311 1.055 A 541.682 541.682 0 0 1 529.875 0.9 A 197.657 197.657 0 0 1 534.188 0.695 Q 536.822 0.6 539.1 0.6 A 51.174 51.174 0 0 1 546.849 1.152 Q 553.264 2.136 557.925 4.875 Q 565.2 9.15 569.1 16.575 Q 573 24 574.5 33.525 A 125.348 125.348 0 0 1 575.938 49.325 A 142.931 142.931 0 0 1 576 53.55 A 139.861 139.861 0 0 1 575.509 65.653 Q 574.43 78.047 570.975 86.4 Q 566.745 96.628 559.911 101.966 A 26.884 26.884 0 0 1 557.25 103.8 A 36.663 36.663 0 0 1 540.86 108.922 A 44.707 44.707 0 0 1 537.45 109.05 A 95.051 95.051 0 0 1 535.861 109.036 Q 533.383 108.994 530.129 108.83 A 258.246 258.246 0 0 1 530.025 108.825 Q 525.6 108.6 521.025 108.225 Q 516.754 107.875 513.332 107.59 A 4313.905 4313.905 0 0 1 512.85 107.55 A 550.755 550.755 0 0 1 511.238 107.413 Q 508.923 107.214 507.9 107.1 Z M 399.8 106.941 A 45.304 45.304 0 0 0 413.7 109.05 A 50.956 50.956 0 0 0 416.402 108.979 A 43.872 43.872 0 0 0 428.55 106.65 A 27.526 27.526 0 0 0 433.602 104.296 A 30.924 30.924 0 0 0 440.775 98.325 A 28.548 28.548 0 0 0 443.171 95.247 Q 445.059 92.46 446.583 88.934 A 57.207 57.207 0 0 0 449.1 81.75 A 66.138 66.138 0 0 0 450.597 75.026 Q 452.1 66.278 452.1 54.6 Q 452.1 44.223 450.913 36.219 A 67.49 67.49 0 0 0 449.1 27.6 Q 447.413 21.694 444.989 17.235 A 31.56 31.56 0 0 0 440.775 11.175 Q 435.45 5.25 428.55 2.925 A 42.585 42.585 0 0 0 424.473 1.775 A 48.044 48.044 0 0 0 413.7 0.6 A 51.954 51.954 0 0 0 412.971 0.605 A 46.2 46.2 0 0 0 398.925 2.925 A 27.055 27.055 0 0 0 393.926 5.175 A 30.028 30.028 0 0 0 386.625 11.175 Q 381.3 17.1 378.3 27.6 A 64.272 64.272 0 0 0 376.781 34.375 Q 375.3 43.006 375.3 54.6 Q 375.3 71.1 378.3 81.75 A 63.211 63.211 0 0 0 379.457 85.434 Q 382.259 93.468 386.625 98.325 A 34.359 34.359 0 0 0 387.81 99.579 A 28.719 28.719 0 0 0 398.925 106.65 A 42.889 42.889 0 0 0 399.8 106.941 Z M 518.25 12.9 L 520.5 6.9 L 520.5 102.3 L 517.8 96.15 Q 522.15 96.75 526.35 97.425 Q 530.534 98.097 535.759 98.1 A 80.784 80.784 0 0 0 535.8 98.1 A 95.344 95.344 0 0 0 539.588 98.03 Q 544.875 97.819 547.8 96.975 A 20.107 20.107 0 0 0 550.2 96.126 Q 551.379 95.617 552.3 94.999 A 8.96 8.96 0 0 0 553.65 93.9 A 12.453 12.453 0 0 0 555.067 92.173 Q 556.395 90.253 557.625 87.3 Q 559.319 83.235 560.462 75.988 A 110.618 110.618 0 0 0 560.7 74.4 A 100.074 100.074 0 0 0 561.383 68.022 Q 561.9 61.359 561.9 52.5 A 169.026 169.026 0 0 0 561.541 41.188 Q 561.166 35.609 560.4 30.72 A 95.002 95.002 0 0 0 560.025 28.5 A 50.433 50.433 0 0 0 558.942 23.747 Q 557.552 18.843 555.416 16.103 A 10.677 10.677 0 0 0 553.95 14.55 Q 552.513 13.257 549.495 12.446 A 22.988 22.988 0 0 0 549.225 12.375 A 19.579 19.579 0 0 0 547.144 11.976 Q 544.847 11.65 541.528 11.573 A 92.508 92.508 0 0 0 539.4 11.55 A 124.822 124.822 0 0 0 529.595 11.924 A 111.865 111.865 0 0 0 527.85 12.075 Q 524.034 12.436 520.928 12.691 A 343.886 343.886 0 0 1 518.25 12.9 Z M 190.5 106.95 L 178.05 106.95 L 178.05 19.65 L 186 19.65 L 187.65 28.5 L 188.55 28.5 L 190.875 26.85 A 45.925 45.925 0 0 1 192.73 25.606 Q 193.639 25.026 194.694 24.399 A 102.781 102.781 0 0 1 196.95 23.1 A 61.585 61.585 0 0 1 203.914 19.77 A 68.063 68.063 0 0 1 204.975 19.35 A 26.442 26.442 0 0 1 208.867 18.166 A 19.427 19.427 0 0 1 213 17.7 A 23.878 23.878 0 0 1 215.695 17.846 A 19.812 19.812 0 0 1 217.2 18.075 L 219.15 18.45 L 218.1 30.45 L 216.15 30.3 Q 214.2 30.15 212.55 30.15 A 31.158 31.158 0 0 0 204.342 31.276 A 34.59 34.59 0 0 0 204.075 31.35 Q 199.8 32.55 196.2 34.35 A 50.123 50.123 0 0 0 193.902 35.57 Q 191.878 36.717 190.5 37.8 L 190.5 106.95 Z M 111.936 108.274 A 45.127 45.127 0 0 0 119.7 108.9 Q 126.12 108.9 131.123 107.424 A 24.291 24.291 0 0 0 139.275 103.35 Q 146.4 97.8 149.4 87.6 A 60.528 60.528 0 0 0 150.248 84.386 Q 151.368 79.628 151.905 74.113 A 111.756 111.756 0 0 0 152.4 63.3 Q 152.4 55.369 151.451 48.671 A 68.226 68.226 0 0 0 149.4 39 A 37.382 37.382 0 0 0 147.122 33.079 A 27.673 27.673 0 0 0 139.275 23.25 A 22.576 22.576 0 0 0 135.043 20.659 Q 131.667 19.061 127.464 18.326 A 45.127 45.127 0 0 0 119.7 17.7 Q 113.28 17.7 108.277 19.176 A 24.291 24.291 0 0 0 100.125 23.25 Q 93 28.8 90 39 A 60.528 60.528 0 0 0 89.152 42.214 Q 88.032 46.972 87.495 52.487 A 111.756 111.756 0 0 0 87 63.3 Q 87 71.231 87.949 77.929 A 68.226 68.226 0 0 0 90 87.6 A 37.382 37.382 0 0 0 92.278 93.521 A 27.673 27.673 0 0 0 100.125 103.35 A 22.576 22.576 0 0 0 104.357 105.941 Q 107.733 107.539 111.936 108.274 Z M 413.7 97.65 A 49.227 49.227 0 0 0 418.835 97.396 Q 421.42 97.125 423.652 96.563 A 27.447 27.447 0 0 0 424.875 96.225 A 14.341 14.341 0 0 0 432.134 91.176 A 18.073 18.073 0 0 0 432.675 90.45 A 19.827 19.827 0 0 0 434.603 86.972 Q 436.214 83.305 437.188 77.971 A 64.392 64.392 0 0 0 437.25 77.625 A 79.398 79.398 0 0 0 438.041 71.779 Q 438.703 65.211 438.747 56.326 A 257.907 257.907 0 0 0 438.75 55.05 Q 438.75 40.95 437.325 32.4 Q 435.9 23.85 432.9 19.425 A 15.301 15.301 0 0 0 428.955 15.372 A 14.123 14.123 0 0 0 425.1 13.5 Q 420.947 12.202 415.446 12.027 A 54.955 54.955 0 0 0 413.7 12 A 50.831 50.831 0 0 0 408.736 12.229 Q 406.239 12.474 404.098 12.983 A 26.232 26.232 0 0 0 402.225 13.5 A 14.276 14.276 0 0 0 395.028 18.686 A 17.998 17.998 0 0 0 394.5 19.425 A 20.335 20.335 0 0 0 392.624 22.955 Q 391.01 26.789 390.075 32.4 A 85.034 85.034 0 0 0 389.324 38.286 Q 388.693 44.901 388.653 53.811 A 271.792 271.792 0 0 0 388.65 55.05 A 218.419 218.419 0 0 0 388.796 63.313 Q 389.097 71.235 390.016 76.839 A 62.858 62.858 0 0 0 390.15 77.625 A 54.55 54.55 0 0 0 391.234 82.519 Q 392.543 87.295 394.514 90.249 A 15.873 15.873 0 0 0 394.65 90.45 A 14.894 14.894 0 0 0 398.72 94.502 A 13.979 13.979 0 0 0 402.45 96.225 A 32.42 32.42 0 0 0 407.313 97.248 Q 409.718 97.575 412.431 97.636 A 56.196 56.196 0 0 0 413.7 97.65 Z M 119.7 98.1 Q 125.4 98.1 129.225 96.75 A 11.866 11.866 0 0 0 135.265 91.968 A 14.677 14.677 0 0 0 135.375 91.8 A 16.193 16.193 0 0 0 136.814 88.935 Q 138.035 85.828 138.675 81.3 Q 139.65 74.4 139.65 63.3 A 210.383 210.383 0 0 0 139.555 56.773 Q 139.349 50.151 138.696 45.451 A 63.143 63.143 0 0 0 138.675 45.3 A 44.156 44.156 0 0 0 137.934 41.302 Q 136.989 37.319 135.428 34.809 A 13.304 13.304 0 0 0 135.375 34.725 Q 133.05 31.05 129.225 29.775 A 22.299 22.299 0 0 0 125.808 28.949 Q 124.106 28.669 122.145 28.563 A 45.606 45.606 0 0 0 119.7 28.5 A 42.212 42.212 0 0 0 115.689 28.679 Q 112.566 28.978 110.175 29.775 Q 106.35 31.05 104.025 34.725 A 17.319 17.319 0 0 0 102.577 37.633 Q 101.358 40.723 100.672 45.159 A 55.454 55.454 0 0 0 100.65 45.3 A 77.332 77.332 0 0 0 100.052 50.54 Q 99.6 56.016 99.6 63.3 Q 99.6 74.37 100.644 81.263 A 57.031 57.031 0 0 0 100.65 81.3 A 44.869 44.869 0 0 0 101.431 85.29 Q 102.427 89.325 104.025 91.8 A 12.458 12.458 0 0 0 107.315 95.282 A 11.711 11.711 0 0 0 110.175 96.75 A 21.276 21.276 0 0 0 113.592 97.624 Q 115.294 97.922 117.255 98.033 A 43.078 43.078 0 0 0 119.7 98.1 Z M 12.9 12 L 12.6 53.55 A 277.259 277.259 0 0 0 19.426 54.241 A 330.271 330.271 0 0 0 23.775 54.6 A 158.598 158.598 0 0 0 30.918 54.987 A 131.613 131.613 0 0 0 34.95 55.05 Q 44.624 55.05 48.659 51.005 A 9.251 9.251 0 0 0 49.725 49.725 A 16.841 16.841 0 0 0 51.817 45.346 Q 53.184 41.146 53.37 34.997 A 65.79 65.79 0 0 0 53.4 33 Q 53.4 24.94 52.217 20.204 A 21.197 21.197 0 0 0 51.825 18.825 Q 50.25 13.95 47.55 12.45 Q 45.9 11.4 42.525 10.875 A 43.985 43.985 0 0 0 38.101 10.424 A 53.72 53.72 0 0 0 35.25 10.35 Q 29.1 10.35 22.725 10.95 Q 17.844 11.409 14.678 11.781 A 139.463 139.463 0 0 0 12.9 12 Z M 645.3 89.7 L 645.3 64.8 A 49.422 49.422 0 0 0 644.203 64.645 Q 642.375 64.406 639.45 64.125 A 66.567 66.567 0 0 0 636.778 63.927 Q 633.684 63.756 629.528 63.75 A 209.101 209.101 0 0 0 629.25 63.75 A 106.064 106.064 0 0 0 623.839 63.877 Q 614.604 64.351 612 66.6 Q 610.059 68.093 609.01 71.889 A 21.149 21.149 0 0 0 609 71.925 A 26.967 26.967 0 0 0 608.292 75.503 Q 608.057 77.268 607.983 79.275 A 51.343 51.343 0 0 0 607.95 81.15 Q 607.95 90 610.875 93.975 Q 613.453 97.478 619.002 97.894 A 20.731 20.731 0 0 0 620.55 97.95 A 33.234 33.234 0 0 0 630.749 96.4 A 31.664 31.664 0 0 0 630.825 96.375 A 67.222 67.222 0 0 0 635.708 94.596 A 51.534 51.534 0 0 0 639.525 92.85 A 167.558 167.558 0 0 0 641.32 91.922 Q 643.838 90.6 645.3 89.7 Z M 481.35 35.25 L 473.4 35.25 L 471.3 2.7 L 471.3 0 L 483.75 0 L 483.75 2.85 L 481.35 35.25 Z" fill-rule="evenodd" fill="none" vector-effect="non-scaling-stroke" stroke-width=".25" stroke="rgb(0,0,0)" stroke-linejoin="miter" stroke-linecap="round" stroke-miterlimit="3"/></g></svg>